HIERARCHY
ROOT Pelvis
{
	OFFSET 0.000000 0.000000 0.000000
	CHANNELS 6 Xposition Yposition Zposition Xrotation Yrotation Zrotation
	JOINT LeftUpLeg_virtual
	{
		OFFSET 0.000000 0.000000 0.000000
		CHANNELS 3 Xrotation Yrotation Zrotation
		JOINT LeftUpLeg
		{
			OFFSET 18.735201 -5.666702 -4.541200
			CHANNELS 3 Xrotation Yrotation Zrotation
			JOINT LeftLeg
			{
				OFFSET -0.021200 -31.938179 0.493100
				CHANNELS 3 Xrotation Yrotation Zrotation
				JOINT LeftFoot
				{
					OFFSET 0.021200 -31.938179 -4.336299
					CHANNELS 3 Xrotation Yrotation Zrotation
					JOINT LeftToeBase
					{
						OFFSET 0.943001 -26.722000 15.023500
						CHANNELS 3 Xrotation Yrotation Zrotation
						End Site
						{
							OFFSET 0 0 0
						}
					}
				}
			}
		}
	}
	JOINT RightUpLeg_virtual
	{
		OFFSET 0.000000 0.000000 0.000000
		CHANNELS 3 Xrotation Yrotation Zrotation
		JOINT RightUpLeg
		{
			OFFSET -18.735201 -5.666702 -4.541200
			CHANNELS 3 Xrotation Yrotation Zrotation
			JOINT RightLeg
			{
				OFFSET 0.018946 -31.938133 0.493100
				CHANNELS 3 Xrotation Yrotation Zrotation
				JOINT RightFoot
				{
					OFFSET -0.018946 -31.938126 -4.336299
					CHANNELS 3 Xrotation Yrotation Zrotation
					JOINT RightToeBase
					{
						OFFSET -0.943001 -26.722004 15.023500
						CHANNELS 3 Xrotation Yrotation Zrotation
						End Site
						{
							OFFSET 0 0 0
						}
					}
				}
			}
		}
	}
	JOINT Hips_virtual
	{
		OFFSET 0.000000 0.000000 0.000000
		CHANNELS 3 Xrotation Yrotation Zrotation
		JOINT Hips
		{
			OFFSET -0.000000 -0.000000 -0.000000
			CHANNELS 3 Xrotation Yrotation Zrotation
			JOINT Spine
			{
				OFFSET 0.000000 10.199997 -0.299500
				CHANNELS 3 Xrotation Yrotation Zrotation
				JOINT Spine1
				{
					OFFSET 0.000000 11.900002 -1.516600
					CHANNELS 3 Xrotation Yrotation Zrotation
					JOINT Spine2
					{
						OFFSET 0.000000 13.600006 -2.842500
						CHANNELS 3 Xrotation Yrotation Zrotation
						JOINT Neck_virtual
						{
							OFFSET 0.000000 0.000000 0.000000
							CHANNELS 3 Xrotation Yrotation Zrotation
							JOINT Neck
							{
								OFFSET 0.000000 9.624100 -2.890100
								CHANNELS 3 Xrotation Yrotation Zrotation
								JOINT Head
								{
									OFFSET 0.000000 14.068802 -1.351900
									CHANNELS 3 Xrotation Yrotation Zrotation
									End Site
									{
										OFFSET 0 0 0
									}
								}
							}
						}
						JOINT LeftShoulder_virtual
						{
							OFFSET 0.000000 0.000000 0.000000
							CHANNELS 3 Xrotation Yrotation Zrotation
							JOINT LeftShoulder
							{
								OFFSET 15.263000 10.923401 -0.547700
								CHANNELS 3 Xrotation Yrotation Zrotation
								JOINT LeftArm
								{
									OFFSET 25.438599 -2.830597 -13.032500
									CHANNELS 3 Xrotation Yrotation Zrotation
									JOINT LeftForeArm
									{
										OFFSET 29.960503 0.000000 0.000000
										CHANNELS 3 Xrotation Yrotation Zrotation
										JOINT LeftHand
										{
											OFFSET 27.849251 0.000000 0.000000
											CHANNELS 3 Xrotation Yrotation Zrotation
											End Site
											{
												OFFSET 0 0 0
											}
										}
									}
								}
							}
						}
						JOINT RightShoulder_virtual
						{
							OFFSET 0.000000 0.000000 0.000000
							CHANNELS 3 Xrotation Yrotation Zrotation
							JOINT RightShoulder
							{
								OFFSET -15.263000 10.923401 -0.547700
								CHANNELS 3 Xrotation Yrotation Zrotation
								JOINT RightArm
								{
									OFFSET -25.438599 -2.830597 -13.032500
									CHANNELS 3 Xrotation Yrotation Zrotation
									JOINT RightForeArm
									{
										OFFSET -29.960503 0.000000 0.000000
										CHANNELS 3 Xrotation Yrotation Zrotation
										JOINT RightHand
										{
											OFFSET -27.849251 0.000000 0.000000
											CHANNELS 3 Xrotation Yrotation Zrotation
											End Site
											{
												OFFSET 0 0 0
											}
										}
									}
								}
							}
						}
					}
				}
			}
		}
	}
}
MOTION
Frames: 6
Frame Time: 0.03333333
-3.713804 82.811562 2.810972 0.000000 0.000000 0.000000 -0.147273 -44.355088 4.131401 -45.674131 -3.268119 18.976127 43.752645 -6.137612 -5.183608 -8.401683 -3.308366 -17.086623 0.000000 0.000000 0.000000 5.350255 -51.170439 -1.794017 -28.662397 -17.768959 -24.437715 42.262250 7.369658 -0.151436 -13.137525 2.899379 16.532350 0.000000 0.000000 0.000000 0.234936 -28.057818 1.208518 0.729946 -35.397787 3.982222 13.000019 0.022799 -5.140562 6.793862 0.884507 -3.936582 0.000000 0.000000 0.000000 2.750139 4.047901 -1.404586 -0.955733 3.304377 -0.337993 0.000000 0.000000 0.000000 2.563196 -0.303615 -2.846608 -2.081881 -7.446918 -12.699922 -17.589399 -3.179666 -40.763180 -3.134954 -37.862385 -1.689374 0.000000 0.000000 0.000000 3.275406 1.119709 -2.783433 0.036965 5.770755 -5.713765 -31.305475 1.338725 40.651643 -35.114703 77.244897 30.277815 0.000000 0.000000 0.000000 
-2.613276 82.190636 3.163292 0.000000 0.000000 0.000000 0.768750 -44.449676 4.902738 -44.653622 -3.404972 19.312478 43.538010 -6.466682 -5.595461 -8.206111 -3.445356 -18.119100 0.000000 0.000000 0.000000 5.843764 -51.134331 -1.638343 -28.125623 -17.839416 -24.354409 42.731129 8.376350 -0.134244 -12.823384 3.878422 17.236320 0.000000 0.000000 0.000000 -1.938846 -27.948960 -0.121160 3.234724 -33.630236 6.160919 12.371042 -0.261544 -6.066736 6.634245 0.950645 -4.214619 0.000000 0.000000 0.000000 3.196278 3.741872 -2.069026 -0.764351 3.502814 -0.380331 0.000000 0.000000 0.000000 2.241749 -0.498391 -3.075888 -1.772566 -6.474051 -12.212908 -16.359741 -1.802525 -40.593129 -1.502189 -36.531636 -0.724009 0.000000 0.000000 0.000000 2.848299 1.174654 -3.171843 0.208515 4.540621 -6.117863 -26.417164 1.413609 38.855601 -49.051116 80.867630 45.376959 0.000000 0.000000 0.000000 
-2.166242 81.978226 4.386868 0.000000 0.000000 0.000000 1.908806 -44.292346 6.762260 -44.279683 -3.793178 20.803236 43.903008 -6.597341 -6.083226 -7.828885 -3.320607 -19.061859 0.000000 0.000000 0.000000 6.401897 -50.494598 -1.441768 -27.462019 -17.745105 -24.229324 43.815411 9.041471 -0.657782 -12.275914 4.838853 16.979253 0.000000 0.000000 0.000000 0.480212 -27.684514 2.092516 -0.613303 -33.765088 4.998804 12.388441 -0.919283 -6.155032 5.832669 0.683479 -3.946347 0.000000 0.000000 0.000000 3.278542 3.574931 -1.960273 -1.160700 3.732752 -0.361843 0.000000 0.000000 0.000000 2.499842 -0.269952 -3.209464 -2.251456 -6.482271 -13.345373 -12.918020 -0.327652 -41.848514 0.098342 -32.678746 -0.486013 0.000000 0.000000 0.000000 2.646687 1.130981 -3.187842 0.154354 2.884603 -5.988687 -18.474613 4.509716 39.514529 -65.385169 83.916073 62.554035 0.000000 0.000000 0.000000 
-3.464421 81.632851 3.506077 0.000000 0.000000 0.000000 0.830633 -44.455382 5.669877 -44.938936 -3.730950 20.048229 43.699209 -6.562162 -6.299793 -7.916380 -3.140059 -19.398763 0.000000 0.000000 0.000000 6.785200 -50.308417 -1.909724 -26.638931 -17.677629 -24.638909 43.987658 9.463314 -0.728282 -12.094004 5.326951 17.151742 0.000000 0.000000 0.000000 -1.554508 -26.935618 0.914635 0.586609 -33.418172 3.663373 11.500509 -1.089401 -5.798720 6.428675 0.840095 -4.428941 0.000000 0.000000 0.000000 2.941967 3.284992 -2.098957 -1.348132 3.759516 -0.376605 0.000000 0.000000 0.000000 2.949719 -0.475799 -3.458590 -2.803605 -6.311260 -12.673861 -13.918584 -1.945859 -40.467529 -0.173051 -34.140950 0.029823 0.000000 0.000000 0.000000 2.850330 1.188294 -3.600731 -0.690281 1.708194 -6.296515 -15.000257 3.687387 35.149086 -79.437771 85.821860 76.704418 0.000000 0.000000 0.000000 
-3.335726 82.533356 3.335783 0.000000 0.000000 0.000000 1.327989 -44.943307 5.342391 -44.071550 -3.584355 19.487261 43.417061 -6.533929 -6.427454 -8.063445 -3.056118 -19.631285 0.000000 0.000000 0.000000 7.789250 -50.794860 -1.329371 -25.975267 -18.027623 -24.569498 44.687745 9.828036 -0.877737 -11.896334 5.709937 17.213841 0.000000 0.000000 0.000000 -0.679767 -25.630635 1.025716 -3.536407 -32.744555 2.729182 12.351179 -1.574356 -5.992229 6.228413 0.262651 -4.067115 0.000000 0.000000 0.000000 3.758012 2.599404 -1.976521 -1.523616 3.733534 -0.132715 0.000000 0.000000 0.000000 3.402917 -1.099358 -3.447933 -2.907229 -5.631300 -11.568806 -11.152794 -3.382886 -38.004170 0.910592 -34.010616 0.763507 0.000000 0.000000 0.000000 3.016435 0.590377 -3.294488 -0.321977 0.246534 -5.996412 -4.228819 3.685170 31.048981 -107.148470 87.437227 105.960768 0.000000 0.000000 0.000000 
-3.997723 81.786880 3.808899 0.000000 0.000000 0.000000 2.724044 -45.501248 7.013550 -43.300128 -4.015005 20.630522 42.669158 -6.881451 -6.554352 -8.621276 -3.282144 -20.168432 0.000000 0.000000 0.000000 7.847822 -49.353304 -1.148473 -25.593993 -17.677057 -24.165556 44.630594 9.568465 -0.676039 -11.663957 5.452336 17.268380 0.000000 0.000000 0.000000 -2.347275 -31.639622 1.201796 2.391627 -29.115747 2.410818 10.107383 -1.136882 -5.236956 5.971421 0.751153 -3.746702 0.000000 0.000000 0.000000 3.035741 2.787167 -1.588010 -1.319143 3.712893 0.134397 0.000000 0.000000 0.000000 3.592814 -0.748029 -3.311044 -2.205885 -5.033344 -9.584150 -11.157641 -4.767624 -37.533635 2.003489 -36.877769 1.441172 0.000000 0.000000 0.000000 2.729696 0.657971 -3.159888 -0.995649 0.208540 -5.890614 -1.927219 6.063728 26.650621 -6.507854 88.283084 6.192038 0.000000 0.000000 0.000000 
